# xmcd
#
# Track frame offsets: 
#        150
#        21977
#        43635
#        70685
#        99840
#        134390
#        189145
#        215370
#        248147
#        285095
#
# Disc length: 4414 seconds
#
# Revision: 2
# Processed by: cddbd v1.5.2PL0 Copyright (c) Steve Scherf et al.
# Submitted via: ExactAudioCopy v0.99pb5
#
DISCID=7d113c0a
DTITLE=Howard and The White Boys - Live at Cord on Blues
DYEAR=2000
DGENRE=Blues
TTITLE0=Havin' a Good Time
TTITLE1=You'll Come Back
TTITLE2=Leave the Lights On
TTITLE3=Use Me
TTITLE4=Turn On Your Lovelight
TTITLE5=Bo Diddley
TTITLE6=The Barber
TTITLE7=Bad Attitude
TTITLE8=I Got My Mojo Workin'
TTITLE9=Sex Machine
EXTD=YEAR: 2000 ID3G:   0
EXTT0=
EXTT1=
EXTT2=
EXTT3=
EXTT4=
EXTT5=
EXTT6=
EXTT7=
EXTT8=
EXTT9=
PLAYORDER=
